# File created by Blade
# Date/Time:  Tue Apr 07 20:53:11 2015
# Frame Rate: 120.000 fps
#------------------------------------------------------
:FULLY-SPECIFIED
:DEGREES
582
root -24.897700 33.139005 6.051966 15.341020 -64.576565 -37.840779
Spine -53.052468 -9.117193 -1.939340
Head -87.596373 -14.261213 3.264176
LeftShoulder -11.777771 1.449491 41.135943
LeftArm 178.062157 -71.305151 -160.591713
LeftForeArm -31.491807 0.000000 22.764368
LeftHand 20.925431 -0.000000 44.759518
LeftHandThumb1 -26.253704 0.000000 33.147579
RightShoulder -24.850993 20.284024 -63.136904
RightArm 6.261369 63.392625 -0.416430
RightForeArm 16.963135 -0.000000 36.346618
RightHand 19.937011 -0.000000 -58.353546
RightHandThumb1 -24.326973 -0.000000 -32.862282
LeftUpLeg 19.022839 -11.791679 5.388678
LeftLeg 23.720070 -0.000000 -0.000000
LeftFoot -21.750012 16.526510 -10.000444
LeftToeBase -13.066608 -0.000000 0.000000
RightUpLeg -58.380040 -12.717338 5.155341
RightLeg 3.829479 -0.000000 -0.000000
RightFoot 39.940544 -14.020258 0.837684
RightToeBase 24.626532 -0.000000 -0.000000
583
root -24.879623 33.080315 6.016419 15.251536 -64.330508 -38.948365
Spine -53.423381 -9.321688 -2.407638
Head -87.977956 -14.646639 3.343020
LeftShoulder -11.619738 1.022092 41.035132
LeftArm 180.458278 -71.437676 -163.435529
LeftForeArm -32.172679 0.000000 22.611557
LeftHand 21.476282 -0.000000 45.842936
LeftHandThumb1 -26.253704 0.000000 33.147579
RightShoulder -23.818146 21.477982 -62.569754
RightArm -0.082763 61.073600 -8.136689
RightForeArm 20.124706 -0.000000 35.641312
RightHand 20.685665 -0.000000 -58.909111
RightHandThumb1 -24.326973 -0.000000 -32.862282
LeftUpLeg 19.462648 -11.885944 5.792944
LeftLeg 25.041391 -0.000000 -0.000000
LeftFoot -22.547648 16.503197 -10.120564
LeftToeBase -13.086927 -0.000000 0.000000
RightUpLeg -58.189457 -12.330129 4.610376
RightLeg 4.841661 -0.000000 -0.000000
RightFoot 38.881154 -14.442452 1.026573
RightToeBase 24.922135 -0.000000 -0.000000
584
root -24.851388 33.016397 5.983138 15.336449 -64.158534 -40.191881
Spine -53.872922 -9.618624 -2.565830
Head -88.291161 -14.687546 3.289356
LeftShoulder -11.617816 0.719522 41.084903
LeftArm 183.041705 -71.711272 -166.745396
LeftForeArm -32.463895 0.000000 22.728640
LeftHand 21.364467 0.000000 46.387153
LeftHandThumb1 -26.253704 0.000000 33.147579
RightShoulder -23.480497 21.569740 -62.368449
RightArm -3.786167 60.707090 -11.784411
RightForeArm 21.674806 -0.000000 35.562393
RightHand 21.223317 -0.000000 -58.733313
RightHandThumb1 -24.326973 -0.000000 -32.862282
LeftUpLeg 19.891800 -11.930050 6.211775
LeftLeg 26.300292 -0.000000 -0.000000
LeftFoot -23.400403 16.510974 -10.312936
LeftToeBase -13.023531 -0.000000 0.000000
RightUpLeg -58.091536 -11.825503 4.093415
RightLeg 6.027763 -0.000000 -0.000000
RightFoot 37.706056 -14.867931 1.296415
RightToeBase 24.499282 -0.000000 -0.000000
585
root -24.812572 32.950439 5.936268 15.462368 -63.925246 -41.452905
Spine -54.330222 -10.089108 -2.643207
Head -88.530642 -14.552763 3.324967
LeftShoulder -11.563437 0.323372 41.249983
LeftArm 185.915053 -71.510037 -170.446361
LeftForeArm -32.888298 -0.000000 23.266376
LeftHand 18.321065 -0.000000 48.911038
LeftHandThumb1 -26.253704 0.000000 33.147579
RightShoulder -23.310943 21.522698 -62.184236
RightArm -6.948355 60.653785 -14.645876
RightForeArm 23.007721 -0.000000 35.619143
RightHand 21.729696 -0.000000 -58.830804
RightHandThumb1 -24.326973 -0.000000 -32.862282
LeftUpLeg 20.267375 -12.012274 6.704206
LeftLeg 27.548786 -0.000000 -0.000000
LeftFoot -24.314140 16.440008 -10.508881
LeftToeBase -12.748740 -0.000000 0.000000
RightUpLeg -58.021603 -11.318603 3.553232
RightLeg 7.222533 -0.000000 -0.000000
RightFoot 36.409383 -15.408956 1.724403
RightToeBase 24.736591 -0.000000 -0.000000
586
root -24.775611 32.877019 5.909165 15.594950 -63.953496 -42.873901
Spine -54.664119 -10.207948 -2.703573
Head -88.864081 -14.599144 3.392317
LeftShoulder -11.496755 -0.011229 41.289512
LeftArm 188.616995 -71.323568 -173.960257
LeftForeArm -33.334632 -0.000000 23.595178
LeftHand 18.539807 -0.000000 49.027963
LeftHandThumb1 -26.253704 0.000000 33.147579
RightShoulder -23.159277 21.393416 -61.990643
RightArm -9.782104 60.570143 -17.356325
RightForeArm 24.012724 0.000000 35.691117
RightHand 20.935507 -0.000000 -59.659636
RightHandThumb1 -24.326973 -0.000000 -32.862282
LeftUpLeg 20.928494 -11.896490 7.082734
LeftLeg 28.689903 -0.000000 -0.000000
LeftFoot -25.250987 16.408102 -10.725372
LeftToeBase -12.447488 -0.000000 0.000000
RightUpLeg -57.866091 -10.557250 2.969814
RightLeg 8.565000 -0.000000 -0.000000
RightFoot 34.749580 -16.015068 2.443040
RightToeBase 24.516105 -0.000000 -0.000000
587
root -24.718031 32.801937 5.870823 15.656565 -63.879977 -43.965685
Spine -55.274368 -10.560285 -2.849498
Head -88.966136 -14.487492 3.401917
LeftShoulder -11.376503 -0.366666 41.409008
LeftArm 191.864567 -71.551131 -177.707583
LeftForeArm -33.740319 0.000000 23.434564
LeftHand 18.149721 -0.000000 49.328853
LeftHandThumb1 -26.253704 0.000000 33.147579
RightShoulder -22.977515 21.334729 -61.870046
RightArm -12.600673 60.589529 -19.756302
RightForeArm 25.132264 0.000000 35.926090
RightHand 21.205720 0.000000 -59.629364
RightHandThumb1 -24.326973 -0.000000 -32.862282
LeftUpLeg 21.265964 -11.911593 7.409790
LeftLeg 29.864718 -0.000000 -0.000000
LeftFoot -26.113278 16.391379 -10.956097
LeftToeBase -12.249907 -0.000000 0.000000
RightUpLeg -57.975556 -9.877728 2.288509
RightLeg 9.990050 -0.000000 -0.000000
RightFoot 32.732486 -16.452540 3.193797
RightToeBase 24.558585 -0.000000 -0.000000
588
root -24.658155 32.728140 5.829897 15.747994 -63.852284 -45.179817
Spine -55.788584 -10.835305 -2.977501
Head -89.072852 -14.492186 3.429006
LeftShoulder -11.418715 -0.497405 41.432926
LeftArm 194.409069 -71.479629 -180.912537
LeftForeArm -35.330979 0.000000 23.474785
LeftHand 18.847567 0.000000 49.463862
LeftHandThumb1 -26.253704 0.000000 33.147579
RightShoulder -22.806250 21.372111 -61.749056
RightArm -15.282689 60.337439 -22.153834
RightForeArm 26.193704 -0.000000 36.102336
RightHand 21.834796 0.000000 -59.805121
RightHandThumb1 -24.326973 -0.000000 -32.862282
LeftUpLeg 21.677404 -11.924315 7.764465
LeftLeg 31.054707 -0.000000 -0.000000
LeftFoot -26.936965 16.243655 -11.256488
LeftToeBase -12.018015 -0.000000 0.000000
RightUpLeg -58.014962 -9.080071 1.561777
RightLeg 11.467142 -0.000000 -0.000000
RightFoot 30.592713 -16.654903 3.768881
RightToeBase 24.000860 -0.000000 -0.000000
589
root -24.590271 32.657283 5.781703 15.912132 -63.834588 -46.404315
Spine -56.425804 -11.113384 -3.060916
Head -88.716085 -14.193688 2.894558
LeftShoulder -11.046365 -1.237740 41.735271
LeftArm 199.334264 -72.178606 -186.422079
LeftForeArm -38.239356 0.000000 22.746469
LeftHand 21.046989 -0.000000 49.597722
LeftHandThumb1 -26.253704 0.000000 33.147579
RightShoulder -22.516483 21.235096 -61.833219
RightArm -18.297152 59.880127 -24.397488
RightForeArm 27.100061 0.000000 36.545808
RightHand 22.414551 0.000000 -60.016831
RightHandThumb1 -24.326973 -0.000000 -32.862282
LeftUpLeg 22.009328 -11.846421 8.203832
LeftLeg 32.181767 -0.000000 -0.000000
LeftFoot -27.651397 16.066373 -11.428339
LeftToeBase -11.853509 -0.000000 0.000000
RightUpLeg -58.170213 -8.252447 0.885401
RightLeg 13.005240 -0.000000 -0.000000
RightFoot 28.433887 -16.688364 3.965537
RightToeBase 23.203042 -0.000000 -0.000000
